<svg xmlns="http://www.w3.org/2000/svg" viewBox="0 0 1200 300" width="1200" height="300">
  <!-- GeckoRoo Logo -->

  <!-- Letter G -->
  <g>
    <circle cx="100" cy="150" r="85" fill="#1E1B4B" stroke="none"/>
    <circle cx="100" cy="150" r="65" fill="#F97316" stroke="none"/>
    <path d="M 100 100 Q 80 100 80 120 L 80 180 Q 80 200 100 200 L 120 200 L 120 170 L 100 170 L 100 150 L 140 150 L 140 200 Q 140 220 120 220 L 80 220 Q 60 220 60 200 L 60 100 Q 60 80 80 80 L 120 80 Q 140 80 140 100 L 140 110 L 120 110 Q 120 100 110 100 Z" fill="#1E1B4B"/>
  </g>

  <!-- Letter e -->
  <g>
    <circle cx="230" cy="170" r="45" fill="#1E1B4B" stroke="none"/>
    <circle cx="230" cy="170" r="35" fill="#F97316" stroke="none"/>
    <ellipse cx="230" cy="170" rx="25" ry="20" fill="#1E1B4B"/>
    <rect x="205" y="165" width="50" height="10" fill="#F97316"/>
    <rect x="230" y="140" width="25" height="40" fill="#F97316"/>
  </g>

  <!-- Letter c -->
  <g>
    <circle cx="320" cy="170" r="45" fill="#1E1B4B" stroke="none"/>
    <circle cx="320" cy="170" r="35" fill="#F97316" stroke="none"/>
    <path d="M 345 170 A 25 25 0 1 1 345 171" fill="none" stroke="#1E1B4B" stroke-width="20" stroke-linecap="round"/>
  </g>

  <!-- Letter k -->
  <g>
    <rect x="400" y="90" width="20" height="130" rx="10" fill="#1E1B4B"/>
    <path d="M 410 160 L 450 120 L 430 120 L 410 140" fill="#1E1B4B"/>
    <path d="M 410 160 L 450 200 L 430 200 L 410 180" fill="#1E1B4B"/>
  </g>

  <!-- Letter o with gecko foot -->
  <g>
    <circle cx="510" cy="170" r="45" fill="#1E1B4B" stroke="none"/>
    <circle cx="510" cy="170" r="35" fill="#F97316" stroke="none"/>
    <circle cx="510" cy="170" r="25" fill="none" stroke="#1E1B4B" stroke-width="20"/>
    <!-- Gecko foot detail -->
    <g transform="translate(500, 160) scale(0.3)">
      <ellipse cx="30" cy="30" rx="25" ry="35" fill="#1E1B4B"/>
      <circle cx="20" cy="10" r="8" fill="#1E1B4B"/>
      <circle cx="40" cy="10" r="8" fill="#1E1B4B"/>
      <circle cx="45" cy="30" r="8" fill="#1E1B4B"/>
      <circle cx="15" cy="30" r="8" fill="#1E1B4B"/>
      <circle cx="30" cy="50" r="8" fill="#1E1B4B"/>
    </g>
  </g>

  <!-- Letter R -->
  <g>
    <rect x="590" y="90" width="20" height="130" rx="10" fill="#1E1B4B"/>
    <circle cx="630" cy="120" r="30" fill="none" stroke="#1E1B4B" stroke-width="20"/>
    <path d="M 610 140 L 650 200 L 630 200 L 610 170" fill="#1E1B4B" stroke="#1E1B4B" stroke-width="15"/>
  </g>

  <!-- Letter o -->
  <g>
    <circle cx="720" cy="170" r="45" fill="#1E1B4B" stroke="none"/>
    <circle cx="720" cy="170" r="35" fill="#FFD700" stroke="none"/>
    <circle cx="720" cy="170" r="25" fill="none" stroke="#1E1B4B" stroke-width="20"/>
  </g>

  <!-- Letter o with kangaroo -->
  <g>
    <circle cx="840" cy="170" r="45" fill="#1E1B4B" stroke="none"/>
    <circle cx="840" cy="170" r="35" fill="#FFD700" stroke="none"/>
    <!-- Simplified kangaroo silhouette -->
    <g transform="translate(820, 150) scale(0.8)">
      <ellipse cx="25" cy="25" rx="20" ry="25" fill="#1E1B4B"/>
      <ellipse cx="25" cy="10" rx="12" ry="15" fill="#1E1B4B"/>
      <path d="M 35 25 Q 45 30 40 45" fill="none" stroke="#1E1B4B" stroke-width="8" stroke-linecap="round"/>
      <ellipse cx="20" cy="5" rx="8" ry="12" fill="#1E1B4B" transform="rotate(-30 20 5)"/>
      <circle cx="8" cy="45" r="5" fill="#1E1B4B"/>
      <circle cx="42" cy="45" r="5" fill="#1E1B4B"/>
    </g>
  </g>

  <!-- Icon version (gecko + roo in circles) -->
  <g id="icon" transform="translate(950, 50) scale(0.7)">
    <!-- Orange circle with gecko foot -->
    <circle cx="80" cy="100" r="80" fill="#1E1B4B" stroke="none"/>
    <circle cx="80" cy="100" r="65" fill="#F97316" stroke="none"/>
    <g transform="translate(60, 80) scale(0.8)">
      <ellipse cx="25" cy="25" rx="20" ry="30" fill="#1E1B4B"/>
      <circle cx="18" cy="8" r="7" fill="#1E1B4B"/>
      <circle cx="32" cy="8" r="7" fill="#1E1B4B"/>
      <circle cx="38" cy="25" r="7" fill="#1E1B4B"/>
      <circle cx="12" cy="25" r="7" fill="#1E1B4B"/>
      <circle cx="25" cy="42" r="7" fill="#1E1B4B"/>
    </g>

    <!-- Yellow circle with kangaroo -->
    <circle cx="220" cy="100" r="80" fill="#1E1B4B" stroke="none"/>
    <circle cx="220" cy="100" r="65" fill="#FFD700" stroke="none"/>
    <g transform="translate(195, 75) scale(1.2)">
      <ellipse cx="25" cy="25" rx="18" ry="22" fill="#1E1B4B"/>
      <ellipse cx="25" cy="12" rx="10" ry="13" fill="#1E1B4B"/>
      <path d="M 33 25 Q 40 28 38 38" fill="none" stroke="#1E1B4B" stroke-width="6" stroke-linecap="round"/>
      <ellipse cx="20" cy="8" rx="6" ry="10" fill="#1E1B4B" transform="rotate(-30 20 8)"/>
      <circle cx="10" cy="40" r="4" fill="#1E1B4B"/>
      <circle cx="38" cy="40" r="4" fill="#1E1B4B"/>
    </g>

    <!-- Connecting infinity/figure-8 -->
    <path d="M 145 100 Q 150 85 155 100 Q 160 115 145 100" fill="none" stroke="#1E1B4B" stroke-width="15" opacity="0.3"/>
  </g>
</svg>